<?xml version="1.0" encoding="UTF-8" standalone="no"?>
<!-- Created with Inkscape (http://www.inkscape.org/) -->

<svg
   xmlns:dc="http://purl.org/dc/elements/1.1/"
   xmlns:cc="http://creativecommons.org/ns#"
   xmlns:rdf="http://www.w3.org/1999/02/22-rdf-syntax-ns#"
   xmlns:svg="http://www.w3.org/2000/svg"
   xmlns="http://www.w3.org/2000/svg"
   xmlns:sodipodi="http://sodipodi.sourceforge.net/DTD/sodipodi-0.dtd"
   xmlns:inkscape="http://www.inkscape.org/namespaces/inkscape"
   width="372.04724"
   height="524.40942"
   id="svg3175"
   version="1.1"
   inkscape:version="0.92.3 (2405546, 2018-03-11)"
   sodipodi:docname="goblins.svg">
  <defs
     id="defs3177" />
  <sodipodi:namedview
     id="base"
     pagecolor="#ffffff"
     bordercolor="#666666"
     borderopacity="1.0"
     inkscape:pageopacity="0.0"
     inkscape:pageshadow="2"
     inkscape:zoom="2.2978229"
     inkscape:cx="99.202308"
     inkscape:cy="262.20471"
     inkscape:document-units="px"
     inkscape:current-layer="layer1"
     showgrid="false"
     fit-margin-top="0"
     fit-margin-left="0"
     fit-margin-right="0"
     fit-margin-bottom="0"
     inkscape:window-width="2493"
     inkscape:window-height="1385"
     inkscape:window-x="67"
     inkscape:window-y="27"
     inkscape:window-maximized="1" />
  <metadata
     id="metadata3180">
    <rdf:RDF>
      <cc:Work
         rdf:about="">
        <dc:format>image/svg+xml</dc:format>
        <dc:type
           rdf:resource="http://purl.org/dc/dcmitype/StillImage" />
        <dc:title></dc:title>
      </cc:Work>
    </rdf:RDF>
  </metadata>
  <g
     inkscape:label="Layer 1"
     inkscape:groupmode="layer"
     id="layer1"
     transform="translate(-340.42681,-113.11132)">
    <g
       transform="matrix(0.71259124,0,0,0.71259124,340.28526,229.65063)"
       class=""
       id="g825"
       style="opacity:1;vector-effect:none;fill:#333333;fill-opacity:1;stroke-width:1;stroke-linecap:butt;stroke-linejoin:miter;stroke-miterlimit:4;stroke-dasharray:none;stroke-dashoffset:0;stroke-opacity:1">
      <path
         style="vector-effect:none;fill:#333333;fill-opacity:1;stroke-width:1;stroke-linecap:butt;stroke-linejoin:miter;stroke-miterlimit:4;stroke-dasharray:none;stroke-dashoffset:0;stroke-opacity:1"
         inkscape:connector-curvature="0"
         d="m 252.35,51.451 c -18.22,16.765 -31.721,30.803 -40.696,48.492 a 573.792,573.792 0 0 1 30.797,14.065 c 0.876,-0.446 1.748,-0.898 2.627,-1.338 -0.985,-21.191 2.408,-39.965 7.272,-61.219 z M 39.643,77.291 c 21.648,9.825 43.38,20.02 64.914,30.695 1.554,-7.954 3.772,-14.668 8.289,-20.63 C 86.942,81.626 62.209,78.31 39.643,77.291 Z m 363.352,11.822 c -48.633,2.463 -96.585,15.058 -140.09,35.496 13.816,7.717 25.764,14.693 37.52,22.332 21.9,-14.496 70.579,-39.08 101.78,-51.373 v 39.338 c 6.034,-1.671 12.532,-1.336 17.998,0.666 V 88.961 c -7.013,-0.32 -11.8,-0.13 -17.208,0.152 z M 133.504,92.38 c -8.931,5.494 -10.828,15.551 -11.973,24.15 6.966,3.558 13.901,7.17 20.8,10.84 2.334,-10.442 7.597,-19.885 15.314,-27.976 A 534.283,534.283 0 0 0 133.504,92.38 Z m 43.598,13.584 c -11.631,8.575 -17.221,18.189 -18.028,30.467 a 1085.447,1085.447 0 0 1 37.985,21.933 c 13.027,-2.617 26.492,-4.302 40.17,-5.271 0.276,-6.197 1.214,-12.82 3.068,-19.965 a 554.898,554.898 0 0 0 -63.195,-27.164 z m 79.47,35.726 a 74.438,74.438 0 0 0 -1.623,10.553 c 6.958,-0.2 13.29,-0.237 19.723,-0.162 a 536.468,536.468 0 0 0 -18.1,-10.39 z m 153.639,10.079 c -6.664,0 -13.36,6.86 -13.36,17.13 0,10.27 6.696,17.131 13.36,17.131 6.664,0 13.36,-6.86 13.36,-17.13 0,-10.27 -6.696,-17.131 -13.36,-17.131 z m -154.274,18.468 c 1.008,5.609 2.553,11.09 4.194,16.838 l 30.187,-8.416 33.118,28.28 -4.915,35.36 30.833,-0.43 c -6.064,-19.072 -13.21,-37.052 -21.163,-52.94 a 511.118,511.118 0 0 0 -23.98,-17.739 c -17.368,-0.894 -32.488,-1.379 -48.274,-0.953 z m 82.717,0.137 c 21.681,38.75 37.493,89.593 45.143,140.428 9.444,62.753 7.027,124.938 -16.635,163.836 0.146,4.443 1.6,6.989 4.006,9.088 2.748,2.396 7.279,4.083 12.469,4.33 10.38,0.494 21.143,-4.888 23.644,-12.5 l 0.06,-0.186 0.07,-0.183 c 10.524,-27.887 15.45,-101.52 2.103,-170.106 -6.674,-34.293 -17.747,-67.575 -33.994,-94.031 -10.245,-16.682 -22.422,-30.568 -36.866,-40.676 z m -100.482,0.732 a 338.97,338.97 0 0 0 -17.945,1.749 c 7.748,4.485 12.656,9.913 20.783,12.12 -1.116,-4.43 -2.132,-9.015 -2.838,-13.869 z m -52.942,1.172 a 427.562,427.562 0 0 0 -73.568,72.914 l 51.172,-0.716 c 8.088,-8.728 16.807,-16.771 26.156,-23.934 l 3.281,-19.904 18.213,-12.6 c -8.548,-5.49 -17.068,-10.836 -25.254,-15.76 z m 100.69,26.291 -31.344,8.74 -28.951,-7.86 -16.836,11.648 -5.139,31.18 30.045,6.726 -0.529,20.437 c 15.726,-0.278 30.633,-0.405 46.115,-0.529 l -0.459,-20.166 21.416,-5.621 4.014,-28.898 z m -4.184,15.323 9.547,17.175 -24.931,9.163 -4.547,-17.567 z m -59.215,1.404 24.245,7.346 -1.836,18.289 -26.338,-8.809 z m -43.318,38.533 c -25.63,26.628 -45.475,61.109 -58.256,96.412 -18.172,50.197 -21.674,101.663 -11.81,129.72 3.651,4.114 12.494,7.41 21.564,6.718 7.742,-0.591 14.242,-3.561 17.752,-8.02 -21.654,-37.214 -20.589,-83.507 -8.299,-129.74 8.582,-32.283 22.713,-64.79 39.05,-95.09 z m 273.176,4.598 -36.002,0.504 a 361.986,361.986 0 0 1 6.969,25.093 l 35.611,-0.113 z m -97.734,1.367 -49.668,0.695 -7.838,2.057 0.498,21.883 62.988,-0.203 a 472.289,472.289 0 0 0 -5.98,-24.432 z m -146.01,2.043 -13.442,0.187 a 538.434,538.434 0 0 0 -11.617,22.77 l 31.192,-0.1 0.552,-21.361 z m -61.076,0.853 -84.936,1.188 -13.344,21.348 83.06,-0.266 a 274.788,274.788 0 0 1 15.22,-22.27 z m 132.13,24.215 c -16.44,0.178 -30.81,0.203 -46.99,0.547 l -0.4,15.5 47.738,-0.724 z m 152.178,15.092 -4.617,0.016 c 5.835,30.117 8.565,60.477 8.787,88.17 7.006,5.918 13.681,12.026 20.111,18.263 5.487,-8.133 11.222,-15.978 17.2,-23.142 a 428.526,428.526 0 0 0 -41.48,-83.307 z m -67.71,0.217 -66.112,0.213 0.398,17.521 -32.668,0.496 c 8.228,36.735 24.691,70.42 44.856,96.178 14.02,17.91 29.822,31.793 45.53,40.53 15.418,-33.199 18.198,-88.116 9.837,-143.67 a 458.357,458.357 0 0 0 -1.842,-11.268 z m -149.854,0.48 -38.916,0.125 c -7.246,16.865 -13.376,33.936 -17.838,50.723 -9.107,34.259 -11.232,66.915 -2.863,94.604 40.638,-39.739 77.702,-75.824 90.642,-127.391 l -31.506,0.478 z m -92.198,0.297 -48.746,0.156 c -11.877,21.835 -21.652,44.664 -28.976,68.168 a 287.284,287.284 0 0 1 18.012,17.354 c 10.144,-8.627 21.359,-16.503 34.511,-22.674 a 351.243,351.243 0 0 1 7.117,-21.88 c 5.028,-13.89 11.06,-27.728 18.082,-41.124 z M 90.94,389.902 c -5.764,3.732 -11.189,7.886 -16.408,12.348 a 297.288,297.288 0 0 1 12.026,15.354 c 0.945,-8.997 2.414,-18.268 4.382,-27.702 z m -52.003,0.803 a 344.25,344.25 0 0 0 -5.454,25.961 c 5.114,-5.262 10.267,-10.59 15.653,-15.834 a 271.026,271.026 0 0 0 -10.2,-10.127 z m 441.34,14.922 c -3.766,5.037 -7.48,10.381 -11.124,15.91 7.409,7.724 14.538,15.58 21.543,23.461 a 450.711,450.711 0 0 0 -10.42,-39.371 z m -44.678,8.166 c -0.554,11.9 -1.602,23.048 -3.092,33.164 4.339,-7.542 8.88,-15.31 13.68,-23.07 A 419.389,419.389 0 0 0 435.599,413.793 Z M 29.842,445.744 c -0.983,11.546 -2.93,26.6 7.535,32.596 5.018,2.794 12.75,3.938 20.75,3.049 8,-0.89 16.136,-3.772 21.539,-7.325 5.403,-3.552 7.231,-7.011 7.186,-9.043 -0.406,-5.728 -1.175,-11.65 -1.405,-16.835 -7.327,-11.919 -14.361,-24.404 -26.154,-32.1 -12.289,9.437 -18.357,19.266 -29.451,29.658 z m 429.392,-8.502 c -8.303,13.622 -16.025,27.32 -23.107,39.617 9.047,9.572 23.629,12.14 36.78,9.534 7.233,-1.434 13.674,-4.482 17.59,-7.854 1.27,-1.095 2.233,-2.133 2.976,-3.146 -11.34,-12.924 -22.547,-25.775 -34.239,-38.15 z m -105.421,37.115 -194.356,0.916 -0.861,13.782 194.355,-0.918 z"
         id="path823" />
    </g>
  </g>
</svg>
