<?xml version="1.0" encoding="UTF-8" standalone="no"?>
<!-- Created with Inkscape (https://www.inkscape.org/) -->

<svg
   xmlns:dc="https://purl.org/dc/elements/1.1/"
   xmlns:cc="https://creativecommons.org/ns#"
   xmlns:rdf="https://www.w3.org/1999/02/22-rdf-syntax-ns#"
   xmlns:svg="https://www.w3.org/2000/svg"
   xmlns="https://www.w3.org/2000/svg"
   xmlns:sodipodi="https://sodipodi.sourceforge.net/DTD/sodipodi-0.dtd"
   xmlns:inkscape="https://www.inkscape.org/namespaces/inkscape"
   width="372.04724"
   height="524.40942"
   id="svg3175"
   version="1.1"
   inkscape:version="0.48.3.1 r9886"
   sodipodi:docname="gangster.svg">
  <defs
     id="defs3177" />
  <sodipodi:namedview
     id="base"
     pagecolor="#ffffff"
     bordercolor="#666666"
     borderopacity="1.0"
     inkscape:pageopacity="0.0"
     inkscape:pageshadow="2"
     inkscape:zoom="2.2978229"
     inkscape:cx="186.02362"
     inkscape:cy="262.20471"
     inkscape:document-units="px"
     inkscape:current-layer="layer1"
     showgrid="false"
     fit-margin-top="0"
     fit-margin-left="0"
     fit-margin-right="0"
     fit-margin-bottom="0"
     inkscape:window-width="2496"
     inkscape:window-height="1382"
     inkscape:window-x="64"
     inkscape:window-y="28"
     inkscape:window-maximized="1" />
  <metadata
     id="metadata3180">
    <rdf:RDF>
      <cc:Work
         rdf:about="">
        <dc:format>image/svg+xml</dc:format>
        <dc:type
           rdf:resource="https://purl.org/dc/dcmitype/StillImage" />
        <dc:title></dc:title>
      </cc:Work>
    </rdf:RDF>
  </metadata>
  <g
     inkscape:label="Layer 1"
     inkscape:groupmode="layer"
     id="layer1"
     transform="translate(-340.42681,-113.11132)">
    <path
       style="fill:#333333;fill-rule:evenodd"
       inkscape:connector-curvature="0"
       clip-rule="evenodd"
       d="m 456.00042,286.27979 c 0,0 -1.40585,-19.01645 -2.12124,-21.32106 -0.71538,-2.30462 -4.07948,-4.62282 -9.29542,-2.32274 -1.4285,0.62936 -3.79197,-2.40874 -6.7531,-2.30687 -2.96341,0.10186 -7.30323,0.14716 -8.50307,2.20274 -1.19759,2.05333 -3.24639,16.21153 -3.48183,18.55011 0,0 -13.08061,1.51678 -13.23907,3.11054 -0.15622,1.59602 10.1738,6.21205 10.1738,6.21205 0,0 -1.0527,1.67752 -0.93498,3.58143 0.11998,1.90164 1.50094,3.49541 1.8043,4.64998 0.30563,1.15457 1.83146,2.4246 2.81172,1.65036 0,0 0.81273,5.10727 1.39453,6.62406 0.58409,1.51453 1.13194,2.02843 1.04139,2.55816 -0.086,0.53202 -0.0521,4.55716 -0.0521,4.55716 0,0 -1.05269,0.1947 -1.14551,0.51616 -0.0951,0.32147 -1.4851,3.01773 -1.94014,3.56106 -0.45729,0.5456 -5.33139,5.0054 -6.76668,6.43164 -1.43077,1.42851 -6.22563,3.66293 -6.22563,3.66293 l -0.63162,1.60961 -3.93459,1.09118 -0.0227,-5.18877 0.6769,-0.34184 -0.0136,-6.51315 c 0,0 -0.71991,-0.87611 -1.94919,-1.20211 l -0.14942,-7.30548 -0.80819,-0.44824 -0.95083,-46.83483 1.52811,-0.21279 -0.0362,-1.05723 -1.53037,-1.4285 -0.43013,-9.20035 c 0,0 -1.66168,-0.62935 -3.01774,0 l 0.30336,8.67514 -1.04138,0.51162 0.086,2.43366 0.79915,0.13129 0.52295,16.50585 c 0,0 -1.88806,0.54105 -2.70985,1.2587 -0.82177,0.71539 -1.84051,1.91749 -2.49703,2.83889 -0.65652,0.92365 -1.68886,0.11319 -2.34764,0.98252 -0.65878,0.87158 -0.31693,1.54847 -0.71538,2.19594 -0.40296,0.64973 -1.9107,-0.0385 -2.40648,0.87838 -0.49805,0.91687 -0.043,1.80204 -0.29883,2.07596 -0.25582,0.27393 -1.97408,-0.40749 -2.58081,0.4075 -0.60898,0.81499 -0.26713,1.49188 -0.67689,1.879 -0.40976,0.38712 -2.97699,-1.85636 -3.9912,-0.55011 -1.0142,1.30624 0.79914,7.70393 4.18815,9.22524 3.39127,1.52358 6.94555,-4.31944 7.49792,-5.18651 0.55238,-0.86706 1.4217,-0.20828 1.92202,0.40976 0.49806,0.61804 0.6452,6.38409 0.40976,7.18777 -0.23545,0.8014 -1.45793,3.81009 -1.37643,4.5481 0.0769,0.73802 2.76644,1.91524 2.76644,1.91524 l 0.22865,6.55614 -22.2153,0.77651 -0.6067,0.81725 -1.00516,0.034 0.25808,7.4051 c 0,0 0.4505,2.31368 15.97382,0.92592 l 0.41202,11.84681 c 0,0 -2.25029,-0.76746 -2.76191,-0.27394 -0.5139,0.49353 -0.82405,2.25255 -0.82405,2.25255 0,0 -1.12061,-0.27846 -1.85184,0.0113 -0.73349,0.28976 -1.30851,2.00578 -1.30851,2.00578 0,0 -1.74771,-0.0453 -2.36574,0.50484 -0.61577,0.55238 -0.70632,1.03005 -1.03684,2.15293 -0.33054,1.12514 -0.61804,3.46598 -0.61578,5.05521 0.002,1.58697 0.74255,6.1147 0.7018,7.919 -0.0453,1.80204 -0.10866,2.97018 -0.10866,2.97018 0,0 -6.01735,12.70708 -5.38121,15.7565 0.63388,3.04942 1.46924,2.70079 3.33468,4.54357 1.86768,1.84052 8.43967,8.12275 8.43967,8.12275 0,0 -9.50143,23.63247 -10.2236,28.74427 -0.163,1.16137 9.40635,2.37253 18.3554,0.89649 1.01421,-0.16752 3.48635,-23.05292 3.48635,-23.05292 0,0 3.1015,0.0974 4.10891,-0.56596 2.12352,-1.39681 4.05459,-5.27934 4.05459,-5.27934 0,0 0.22639,3.48862 -0.0611,4.29229 -0.28978,0.80368 -3.5022,16.48546 -3.5022,16.48546 l -1.14778,0.46409 -1.74771,10.65148 1.18627,0.59539 c 0,0 -2.36348,11.20387 -3.08338,17.90264 -0.71764,6.69651 -0.77198,11.25367 -0.77198,11.25367 l 2.90455,1.27456 c 0,0 1.80203,15.186 1.52131,16.2568 -0.28072,1.07081 -1.37643,6.08527 -1.53717,7.5749 -0.16073,1.48735 0.88517,4.09986 0.6135,5.48533 -0.26939,1.38775 -0.36447,7.74468 -0.1041,9.11206 0.25809,1.36738 1.79072,5.76152 1.39454,6.62407 -0.39391,0.86026 -0.7516,2.78002 -1.42623,4.60243 -0.67916,1.82467 -1.29266,14.55438 -1.39228,17.73511 -0.0996,3.18073 0.34864,16.08702 0.34864,16.08702 0,0 -1.24512,6.82328 -1.08213,8.40573 0.16074,1.58243 1.09571,4.0908 0.91687,5.05068 -0.17884,0.95987 -1.22475,1.3153 -1.18627,2.37027 0.0362,1.05948 0.004,3.17619 0.004,3.17619 0,0 -1.4919,2.80719 -1.22702,4.28098 0.26261,1.47377 1.18174,3.56105 1.11608,4.72693 -0.0634,1.16816 -0.55464,5.31556 -0.11319,5.82945 0.44146,0.51389 0.47088,1.36059 0.47088,1.36059 0,0 -3.36183,9.86139 -4.68846,11.38949 -1.3221,1.53038 -3.80556,6.27544 -1.31983,7.67224 2.48571,1.39681 14.2397,-4.73373 15.66594,-6.37277 1.42397,-1.63904 1.59375,-5.87925 1.59375,-5.87925 l 2.85927,0.004 c 0,0 3.96402,-1.72733 4.76996,-2.92039 0,0 0.43919,-5.62797 -0.36675,-7.50697 0,0 1.4534,-3.86441 2.37026,-4.84919 0.9214,-0.98252 2.50611,-4.11118 2.54685,-5.91322 0.0454,-1.80204 -0.5071,-8.45553 -0.2943,-14.50005 0.21507,-6.04452 2.4246,-42.76892 2.72343,-46.37752 0.29883,-3.61311 2.05106,-8.01634 2.10992,-9.39502 0.0566,-1.3787 4.35341,-20.91132 4.35341,-20.91132 0,0 2.04653,-8.12048 2.84341,-9.52408 0.79915,-1.40586 4.1293,-1.23833 4.53679,-0.21054 2.79361,7.05194 16.58959,50.09705 17.22347,53.14648 0.63841,3.04942 2.87285,6.36145 2.87285,6.36145 0,0 0.0702,14.1899 0.36448,19.58243 0.29431,5.388 3.65162,16.60544 5.27028,20.46986 1.6164,3.86215 5.10275,9.67122 5.10275,9.67122 0,0 -0.9712,2.47214 -0.52974,2.98604 0.44145,0.5139 1.58244,2.80493 1.58244,2.80493 0,0 0.30109,5.60079 0.76744,6.85497 0,0 3.88707,2.08956 5.16387,2.25708 l 4.20853,-0.78329 c 0,0 2.25934,0.98025 2.63061,2.5559 0.37354,1.57565 1.18627,3.66519 2.71663,4.98954 1.52811,1.32211 13.10552,4.57528 15.5437,3.79877 2.61703,-0.8331 2.54458,-1.41265 2.56269,-2.42007 0.0181,-1.00515 -2.4993,-4.83787 -3.93686,-6.5901 -1.43981,-1.74998 -8.90378,-10.80769 -9.30222,-11.58873 -0.39844,-0.78103 -0.50936,-2.42007 -0.64293,-3.26223 -0.13583,-0.84215 -0.79461,-3.04262 -0.98931,-4.09759 -0.19695,-1.05043 -0.11772,-3.38447 0.18563,-3.7648 0.30336,-0.38033 0.87838,-2.09634 0.84896,-2.9951 -0.0317,-0.89875 -0.326,-3.21921 -1.52812,-4.34208 -1.20437,-1.12288 -4.57527,-6.67161 -4.98503,-7.76732 -0.40976,-1.09798 -1.44207,-17.00388 -2.07595,-23.01897 -0.63388,-6.01509 -3.45013,-25.73334 -3.40033,-27.32258 0.0499,-1.59149 -1.68431,-18.42559 -1.7296,-19.69336 -0.0453,-1.27002 -0.57728,-4.14965 -0.62482,-5.52608 -0.0475,-1.37417 -1.10024,-13.30473 -1.10024,-13.30473 l 2.40422,-0.93045 c 0,0 -0.57501,-13.43151 -1.90617,-21.22146 -1.33114,-7.79222 -4.57754,-28.01532 -4.72468,-32.13781 -0.14263,-4.12702 0.5637,-14.21254 1.05043,-15.39428 0.48674,-1.18173 1.58018,-3.33919 1.58018,-3.33919 0,0 1.16815,3.13771 2.25481,3.94591 1.08666,0.8082 2.12125,3.10375 2.12125,3.10375 0,0 -0.62483,9.44712 -0.23319,11.5525 0.39165,2.10539 1.84732,16.4583 2.24124,21.63348 0.39163,5.17746 -0.48449,10.39568 -0.48449,10.39568 l 0.51391,1.04137 c 0,0 -1.36058,3.54295 -1.30398,5.12766 0.0542,1.58696 0.80593,7.96879 0.69273,9.24335 -0.11545,1.27455 2.56043,0.54558 2.9385,-0.79236 0,0 0.27166,3.21922 -0.0272,3.76029 -0.3011,0.54106 -1.22702,2.79812 -0.89423,3.21015 0.3328,0.40976 2.11219,-0.12678 2.57627,-0.5139 0.46184,-0.38712 1.79752,-1.65035 1.79752,-1.65035 0,0 0.99836,-0.19243 1.87674,-0.86026 0.87611,-0.66785 2.37706,-3.15584 2.37706,-3.15584 0,0 1.42171,-0.26034 2.0986,-0.60219 0.6769,-0.34183 2.13709,-0.97572 2.59892,-1.36284 0.46408,-0.38712 0.97345,-4.00477 1.13646,-5.38799 0.163,-1.38323 0.10185,-3.1264 0.10185,-3.1264 0,0 2.96114,-0.15621 3.49089,-1.60508 0.532,-1.44887 0.24222,-34.00551 -0.0951,-37.596 -0.33731,-3.58822 -2.35215,-21.83949 -2.84115,-23.72982 -0.48899,-1.88805 -2.39064,-7.75372 -2.98151,-9.53313 -0.59086,-1.78165 -2.57175,-16.01005 -3.08564,-18.63839 -0.51843,-2.6306 -3.38221,-8.88566 -4.79034,-12.86101 -1.41039,-3.97534 -1.71148,-6.5086 -2.8072,-7.52735 -1.09343,-1.021 -14.63134,-6.47917 -16.33829,-6.84366 -1.70696,-0.36448 -3.84405,-0.92592 -3.84405,-0.92592 0,0 -7.98011,-7.13569 -8.74078,-7.63828 -0.75838,-0.50257 -2.6057,-0.33279 -2.6057,-0.33279 0,0 -0.32827,-3.32561 -0.163,-4.65449 0.16527,-1.3289 1.34473,-3.91197 1.34473,-3.91197 0,0 0.86027,0.33959 1.46925,-0.42334 0.60899,-0.76066 0.59087,-1.23607 1.08213,-2.36573 0.49126,-1.12967 1.79977,-3.08113 1.72733,-5.1435 0,0 8.04124,-1.76355 8.5257,-3.05169 0.48674,-1.28814 -10.20323,-4.09081 -10.53149,-4.39643 z"
       id="path9" />
    <path
       style="color:#000000;fill:#333333;fill-opacity:1;fill-rule:evenodd;stroke-width:1;stroke-linecap:butt;stroke-linejoin:miter;stroke-miterlimit:4;stroke-opacity:1;stroke-dasharray:none;stroke-dashoffset:0;marker:none;visibility:visible;display:inline;overflow:visible;enable-background:accumulate"
       inkscape:connector-curvature="0"
       clip-rule="evenodd"
       d="m 557.5832,433.16978 c -0.0701,2.18194 -0.14018,4.36161 -0.21028,6.54355 0.70319,0.63084 1.40639,1.2662 2.10958,1.8993 0,1.05366 0,2.11184 0,3.1655 0.68737,4.91557 1.46066,5.45823 0.63311,11.18101 -2.83313,-0.0792 -9.53721,-1.61441 -11.39581,0.21253 -0.35047,2.0395 -0.7032,4.08125 -1.05367,6.11847 2.93714,1.43126 5.31805,3.40518 9.28397,2.5324 0.50422,1.13732 2.36735,1.97392 2.95523,3.58833 1.38603,3.79408 -2.13672,10.90289 -2.74269,13.50764 -0.14018,3.79634 -0.28263,7.59269 -0.42282,11.39129 -1.25264,7.09524 -0.28489,13.56418 -1.68901,20.89232 -0.89765,4.68947 -3.52728,10.40319 -2.53241,15.82524 0.21028,0.0678 0.42282,0.14245 0.6331,0.21028 0.81625,0.48387 1.67094,0.38439 2.74268,0.21029 0.74389,-2.85348 1.56467,-6.8194 2.11184,-9.49199 -0.14244,-1.33856 -0.28263,-2.67485 -0.42282,-4.00888 1.61667,-9.35858 3.2356,-18.71038 4.85452,-28.06444 1.60085,-7.99063 0.75294,-16.72064 5.27509,-21.7357 1.68902,0.35274 3.37805,0.70546 5.0648,1.05593 0.82078,-0.93609 0.88861,-1.45839 2.74269,-1.47423 0,0.0678 0,0.14019 0,0.21028 -1.87669,6.41015 -2.25203,11.35285 -3.79861,17.9371 -0.84111,3.57928 -2.59571,7.24448 -2.74267,11.39355 2.02591,1.40412 3.65389,2.90095 5.90818,4.22142 -0.63311,8.57851 -1.26846,17.16155 -1.89931,25.74232 -0.0701,3.65615 -0.14245,7.31456 -0.21253,10.97298 -1.7433,11.21944 -1.37926,20.48759 0.21253,30.80938 0.87956,5.70922 -7.11785,10.89838 -1.89929,19.20104 1.68449,0.52231 3.51143,1.82694 6.11846,1.26846 2.86478,-0.61501 8.65991,-4.32092 9.49651,-6.96411 0.14018,-2.53239 0.28263,-5.06254 0.42281,-7.59494 0.84339,-0.77103 1.68903,-1.54884 2.53241,-2.31986 0.28263,-1.26846 0.56301,-2.5324 0.84337,-3.79861 0.70546,-0.91346 1.40865,-1.8292 2.11184,-2.74494 1.89705,-5.86748 0.50875,-11.4772 1.68903,-18.14737 1.27072,-7.17891 0.84791,-15.87273 2.31986,-23.84301 1.05366,-6.1863 2.11184,-12.38164 3.16551,-18.56794 5.88783,0.12662 12.27084,-0.80041 16.24807,-3.37804 0.58109,1.6031 2.5844,0.86599 4.21916,1.2662 0.44769,10.24718 3.43909,19.13998 5.6979,27.22106 1.3363,6.68373 2.67259,13.3652 4.00888,20.04667 1.40639,3.65842 2.81278,7.31457 4.22142,10.97299 2.03045,5.16655 1.98975,14.27642 6.96185,16.45835 1.8292,0.14245 3.65842,0.28263 5.48762,0.42282 5.69791,9.22066 2.26107,8.50389 13.92821,12.45173 2.42839,0.82077 6.21795,2.31534 7.80749,-0.42508 1.48552,-2.15028 -1.81111,-9.1076 -2.95522,-10.76044 -1.55788,-2.24978 -5.15525,-3.97949 -5.90819,-6.96185 -0.24871,-0.98809 -1.04235,-3.53406 -0.84564,-4.64425 0.34143,-1.9106 1.74555,-3.58153 1.05593,-6.331 -0.66024,-2.63189 -2.59346,-4.63746 -3.58607,-6.75156 -1.40864,-3.00044 -2.00783,-9.96682 -2.74268,-13.08031 -0.42282,-8.02003 -0.84565,-16.04006 -1.2662,-24.05782 -1.85634,-11.54052 -1.2662,-21.29479 -3.1655,-32.4984 -0.35273,-5.83809 -0.7032,-11.67618 -1.05367,-17.51201 -1.51039,-8.98551 -0.79362,-18.45714 -2.53239,-27.85417 -1.82922,-10.05724 -3.65842,-20.11675 -5.48763,-30.17628 -1.17349,-5.82678 0.8479,-15.62175 1.68902,-20.25468 0.0701,-2.39448 0.14019,-4.78217 0.21028,-7.17664 0.0701,0.14017 0.14244,0.28036 0.21254,0.42281 1.32951,1.88121 1.34534,4.69399 2.10959,7.17438 1.99878,6.48476 3.21072,13.68629 5.27507,20.89232 1.3363,2.74042 2.67486,5.48536 4.00889,8.22805 3.99984,9.26361 7.9635,17.919 11.60608,27.43359 -0.42055,0.34821 -0.84338,0.70319 -1.26619,1.05366 0.14018,0.77555 0.28037,1.5511 0.42281,2.32213 0.91348,-0.0678 1.82922,-0.14245 2.74269,-0.21255 0.0723,1.04689 0.1334,1.16672 0.6331,1.68676 0.14019,0 0.28263,0 0.42282,0 1.56466,-2.01687 4.30961,-3.15193 5.90818,-5.06253 1.61667,-1.92871 0.68059,-5.67304 1.47648,-8.43833 0.34821,-1.20741 1.18707,-1.39508 1.68903,-2.32213 0.55169,-2.14348 -0.87051,-4.21011 -1.26846,-6.11846 -0.0701,-2.10958 -0.14019,-4.21916 -0.21029,-6.331 -0.91347,-4.00889 -1.8292,-8.02003 -2.74267,-12.02665 -1.0401,-3.77146 -0.12211,-8.77974 -1.2662,-12.45173 -1.05367,-2.10958 -2.11185,-4.2169 -3.16325,-6.331 -0.91573,-3.58606 -1.82921,-7.17438 -2.74268,-10.76045 -2.39221,-7.24221 -4.78443,-14.48895 -7.17439,-21.73343 -2.16384,-8.9335 -3.47752,-17.0304 -5.6979,-24.90119 -0.563,-2.24978 -1.12602,-4.5018 -1.68676,-6.75157 -3.07053,-4.26213 -12.21205,-4.80479 -17.72681,-6.96411 -4.77312,-1.8699 -9.52139,-7.51354 -12.44947,-11.3958 0.13793,-5.85619 5.16655,-9.82889 6.75157,-14.55906 0.98808,-2.94843 0.0587,-7.01159 0.42281,-9.70679 3.75791,-0.44769 6.45763,-1.78398 9.28397,-2.95296 0,-0.21253 0,-0.42281 0,-0.6331 -0.14018,0 -0.28264,0 -0.42282,0 -3.09542,-0.77328 -6.18855,-1.54883 -9.28396,-2.32212 0.11983,-2.72006 0.67606,-2.74041 0.21028,-5.0648 0.35046,-0.0701 0.70319,-0.14019 1.05591,-0.21028 -1.03556,-1.56918 -0.55848,-3.8167 -1.89929,-6.12072 -0.67155,-1.15542 -2.295,-1.29108 -3.37805,-2.10958 -0.56301,-0.98583 -1.12375,-1.97167 -1.68676,-2.95523 -3.11349,-4.40457 -7.20604,-4.19655 -12.87229,-2.95296 -5.0648,1.11244 -7.57233,-1.93321 -10.7627,2.31987 -3.91167,5.21628 -1.76817,11.49302 -4.00889,18.35765 -3.2356,0.70545 -6.47345,1.40638 -9.70679,2.11184 -0.0701,0.14019 -0.14019,0.28263 -0.21028,0.42281 0,0.14019 0,0.28038 0,0.42282 2.82634,1.89478 5.46275,2.51658 9.28397,3.79861 -0.85242,3.64711 -1.49231,11.3438 3.37804,11.81863 0.49066,2.88286 0.98357,5.76799 1.47648,8.65086 -4.49275,2.47813 -7.06585,8.80915 -11.81637,11.18327 -6.39883,3.19716 -15.89082,3.45492 -20.67977,8.22804 0.28264,1.97167 0.56301,3.94106 0.84564,5.91045 -2.39221,6.25865 -4.78217,12.52182 -7.17438,18.78048 -1.19385,6.40109 -2.39222,12.79993 -3.58607,19.20103 -1.6958,6.7199 -4.99922,14.7535 -6.54128,21.10259 -1.74781,7.19474 1.55788,13.20466 2.74268,18.14511 1.05593,7.87984 2.11184,15.75742 3.1655,23.635 0.69642,-0.0837 1.39961,-0.15601 2.1028,-0.22611 z m 54.86494,-113.94677 c 1.67771,2.23168 0.42735,1.95808 1.26394,4.4317 0.79816,2.35377 4.04732,4.5244 4.85227,7.38466 1.55335,5.4944 -0.74842,13.28833 -1.68903,17.51427 -0.0701,0 -0.14019,0 -0.21028,0 -0.99035,-6.02124 -5.83356,-8.95611 -7.38693,-13.92821 -1.77946,-5.68885 2.22039,-6.36492 -1.47873,-11.18326 0.75745,-1.3476 0.97226,-3.0321 2.32211,-3.79635 0.77782,-0.14245 1.55337,-0.28262 2.32665,-0.42281 z m -35.66164,48.11111 c 0.14019,1.33629 0.28263,2.67258 0.42281,4.00661 -0.0701,0 -0.14018,0 -0.21027,0 -1.26621,0 -2.5324,0 -3.7986,0 -1.06949,5.1937 -1.9581,11.92265 -2.95296,17.72455 -0.35274,2.81279 -0.70546,5.62782 -1.05593,8.44286 -1.36342,-10.49365 0.73485,-26.29629 7.59495,-30.17402 z m 0.84338,20.67977 c 2.24299,6.49154 -0.50422,21.95049 -1.68903,28.69528 -2.39221,13.63879 -0.27811,28.06217 -0.21028,41.78011 -2.25202,-0.35047 -4.50179,-0.70319 -6.75382,-1.0514 0.56301,-4.64651 1.12601,-9.28623 1.68902,-13.92821 0.44091,-1.13054 1.70711,-2.07567 2.10959,-3.7986 0.50647,-2.1729 -0.84113,-3.45944 -0.84565,-4.85453 0.91573,-5.76574 1.82921,-11.53599 2.74268,-17.30173 0.30073,-1.97618 -0.30071,-3.54762 0,-5.48536 -0.14019,-2.10958 -0.28036,-4.22143 -0.42055,-6.331 1.12601,-5.90819 2.25428,-11.81863 3.37804,-17.72456 z m 89.47066,49.79562 c 2.14575,-0.26456 2.22264,-0.6105 3.16551,0.84563 -0.0701,0.98357 -0.14019,1.9694 -0.21029,2.95522 -0.80947,0.73712 -1.74328,1.95357 -2.74042,1.2662 -0.0746,-1.68901 -0.14471,-3.37804 -0.2148,-5.06705 z"
       id="path3261" />
  </g>
</svg>
